<?xml version="1.0" standalone="no"?>
<!DOCTYPE svg PUBLIC "-//W3C//DTD SVG 20010904//EN"
 "http://www.w3.org/TR/2001/REC-SVG-20010904/DTD/svg10.dtd">
<svg version="1.0" xmlns="http://www.w3.org/2000/svg"
 width="570.000000pt" height="570.000000pt" viewBox="0 0 570.000000 570.000000"
 preserveAspectRatio="xMidYMid meet">
<metadata>
Created by potrace 1.14, written by Peter Selinger 2001-2017
</metadata>
<g transform="translate(0.000000,570.000000) scale(0.100000,-0.100000)"
fill="#000000" stroke="none">
<path d="M2569 5686 c-2 -2 -40 -7 -83 -11 -43 -4 -88 -9 -100 -11 -12 -2 -41
-7 -66 -10 -48 -6 -134 -24 -278 -58 -13 -3 -73 -21 -133 -41 -548 -176 -1031
-525 -1377 -993 -273 -370 -446 -803 -514 -1287 -13 -99 -17 -506 -6 -625 26
-264 93 -528 196 -773 l45 -107 47 0 47 0 38 -85 38 -85 1143 0 1143 0 -2
-353 -2 -352 -897 0 c-494 0 -898 -2 -897 -5 0 -4 47 -45 154 -135 17 -14 24
-25 17 -25 -36 0 268 -238 426 -333 198 -119 502 -247 692 -292 192 -45 337
-70 481 -82 108 -9 407 -9 484 0 33 4 83 10 110 13 69 8 102 13 160 24 28 6
59 12 70 14 116 23 325 88 460 143 632 256 1170 767 1456 1379 69 148 149 361
164 434 2 8 12 51 23 95 11 44 23 98 28 120 4 22 8 42 9 45 0 3 5 30 9 60 4
30 10 64 12 75 25 137 24 602 -1 705 -2 8 -7 40 -10 70 -4 30 -16 96 -27 145
-11 50 -22 101 -24 114 -3 14 -7 28 -9 32 -3 4 -7 24 -11 45 -10 65 -16 70
-77 66 -34 -2 -58 1 -62 8 -6 10 -28 89 -39 140 -3 13 -154 16 -1267 20
l-1264 5 0 330 0 330 1117 0 c744 0 1114 3 1111 10 -7 12 -67 87 -108 135 -81
95 -432 437 -524 509 -346 274 -726 454 -1136 539 -89 18 -129 25 -280 47 -46
7 -480 16 -486 11z m1802 -2756 c0 -61 0 -564 0 -617 l-1 -43 -1580 0 -1580 0
0 348 c0 192 2 351 4 353 2 2 713 4 1580 4 l1576 0 1 -45z"/>
</g>
</svg>
